<svg width="40" height="40" viewBox="0 0 40 40" fill="none" xmlns="http://www.w3.org/2000/svg">
<path fill-rule="evenodd" clip-rule="evenodd" d="M18.1451 0.0460239C13.4593 0.501687 9.17319 2.52086 5.84596 5.84011C2.73709 8.94154 0.840397 12.7422 0.145398 17.263C-0.048466 18.5238 -0.048466 21.4807 0.145398 22.7416C0.839927 27.2594 2.72081 31.0318 5.83555 34.154C8.93698 37.2629 12.7376 39.1596 17.2584 39.8546C18.5193 40.0485 21.4762 40.0485 22.737 39.8546C27.2548 39.1601 31.0272 37.2792 34.1495 34.1645C37.2583 31.063 39.155 27.2624 39.85 22.7416C40.0439 21.4807 40.0439 18.5238 39.85 17.263C39.1555 12.7452 37.2746 8.97277 34.1599 5.85052C31.0795 2.7627 27.2338 0.835098 22.8153 0.164205C21.8374 0.0157351 19.155 -0.0521212 18.1451 0.0460239ZM22.5414 3.28967C26.1542 3.85412 29.3394 5.47461 31.9324 8.06763C34.5457 10.6809 36.1467 13.8444 36.7245 17.5369C36.8196 18.1445 36.8593 18.8699 36.8593 20.0023C36.8593 21.1346 36.8196 21.8601 36.7245 22.4677C36.1467 26.1601 34.5457 29.3236 31.9324 31.9369C29.3191 34.5502 26.1556 36.1512 22.4631 36.7291C21.2774 36.9146 18.718 36.9146 17.5324 36.7291C13.8399 36.1512 10.6764 34.5502 8.06307 31.9369C5.44978 29.3236 3.84877 26.1601 3.27094 22.4677C3.08537 21.282 3.08537 18.7226 3.27094 17.5369C3.84877 13.8444 5.44978 10.6809 8.06307 8.06763C10.9456 5.18503 14.3634 3.59255 18.6281 3.14503C19.2648 3.07819 21.7835 3.17133 22.5414 3.28967ZM27.1199 13.317C26.9453 13.392 25.108 15.1711 22.0534 18.223L17.2609 23.0113L15.2443 21.0079C14.1352 19.906 13.1208 18.9503 12.9902 18.884C12.1857 18.4756 11.2792 18.7691 10.8784 19.5676C10.6434 20.0359 10.6303 20.4679 10.8382 20.8973C10.9379 21.1032 11.953 22.172 13.7145 23.9255C15.8611 26.0625 16.501 26.656 16.7409 26.7331C17.1394 26.8609 17.7441 26.7858 18.0634 26.5689C18.4402 26.3128 28.7357 16.0271 29.0232 15.6194C29.2421 15.3092 29.2717 15.2051 29.272 14.7456C29.2722 14.2922 29.2415 14.1806 29.0374 13.8907C28.6015 13.2718 27.7901 13.029 27.1199 13.317Z" fill="white"/>
</svg>
