<svg width="39" height="40" viewBox="0 0 39 40" fill="none" xmlns="http://www.w3.org/2000/svg">
<path fill-rule="evenodd" clip-rule="evenodd" d="M17.5504 10.7914V21.5828H19.1144H20.6784V10.7914V0H19.1144H17.5504V10.7914ZM12.9878 2.73766C7.418 4.58917 2.8297 9.16613 0.989682 14.706C0.228496 16.9977 0 18.423 0 20.879C0 23.3351 0.228496 24.7604 0.989682 27.0521C1.44574 28.4251 2.31179 30.2125 3.07594 31.3577C6.20037 36.0399 10.8383 38.9852 16.4557 39.8543C17.7113 40.0486 20.5175 40.0486 21.7732 39.8543C24.651 39.4091 27.4145 38.3712 29.593 36.9175C34.2753 33.7931 37.2205 29.1551 38.0896 23.5378C38.284 22.2822 38.284 19.4759 38.0896 18.2203C37.8782 16.8536 37.6788 16.0299 37.2391 14.706C35.6654 9.96791 32.1087 5.9334 27.5087 3.66846C26.5342 3.18863 24.2506 2.34596 23.9248 2.34596C23.8228 2.34596 23.8063 2.56875 23.8063 3.9434V5.54084L24.2169 5.69294C24.4426 5.77654 24.7154 5.871 24.8229 5.9029C25.2018 6.01512 27.0587 6.94998 27.6381 7.32025C31.392 9.719 33.9782 13.4773 34.8217 17.7596C35.4138 20.7655 35.1718 23.6743 34.0905 26.5484C32.5087 30.7526 28.988 34.2733 24.7838 35.8551C18.8264 38.0964 12.3165 36.6878 7.81111 32.1823C5.49041 29.8617 3.93988 26.9479 3.36411 23.8254C2.17111 17.3559 5.00135 10.8918 10.5908 7.32025C11.1701 6.94998 13.027 6.01512 13.4059 5.9029C13.5134 5.871 13.7862 5.77654 14.0119 5.69294L14.4225 5.54084V3.9434C14.4225 2.47311 14.4116 2.34619 14.2856 2.34885C14.2103 2.35042 13.6264 2.52535 12.9878 2.73766Z" fill="white"/>
</svg>
