<svg width="31" height="40" viewBox="0 0 31 40" fill="none" xmlns="http://www.w3.org/2000/svg">
<path fill-rule="evenodd" clip-rule="evenodd" d="M2.7012 0.106131C2.04339 0.270738 1.55098 0.551826 1.05497 1.04596C0.544124 1.55493 0.235302 2.11539 0.0930387 2.79186C-0.0319591 3.38615 -0.0305531 36.6133 0.0945228 37.1977C0.381783 38.5398 1.46051 39.6185 2.80268 39.9058C3.38532 40.0305 27.0856 40.0318 27.6774 39.9072C29.0031 39.628 30.1103 38.5211 30.3874 37.1977C30.449 36.9038 30.4741 32.9409 30.4741 23.5417C30.4741 11.5734 30.4621 10.2756 30.3494 10.0496C30.1774 9.70479 20.8175 0.333471 20.4579 0.14613C20.1764 -0.00058567 19.9243 -0.00472622 11.6299 0.00175804C5.07459 0.00683607 3.00111 0.0311325 2.7012 0.106131ZM18.7556 5.42088C18.7556 7.42303 18.7866 8.64793 18.8442 8.91691C19.1314 10.2591 20.2102 11.3378 21.5523 11.6251C21.8213 11.6826 23.0462 11.7137 25.0484 11.7137H28.1304V24.2166C28.1304 36.5931 28.1289 36.7226 27.9732 37.0277C27.8719 37.2262 27.706 37.3922 27.5075 37.4934C27.2025 37.6491 27.0716 37.6507 15.2343 37.6507H3.26931L2.95767 37.4755C2.77479 37.3727 2.58479 37.1804 2.49784 37.0099C2.35362 36.7274 2.34972 36.2651 2.35292 19.9784C2.35604 4.00762 2.36269 3.22506 2.4969 2.97319C2.57424 2.82796 2.77494 2.62601 2.94283 2.52437L3.24806 2.33961L11.0018 2.33922L18.7556 2.33883V5.42088ZM24.218 9.35167C22.0655 9.37198 22.0173 9.36901 21.7095 9.19605C21.1238 8.86683 21.0993 8.74793 21.0993 6.22899V4.01934L23.756 6.67515L26.4127 9.33089L24.218 9.35167ZM7.64337 16.7184C7.31353 16.8925 7.03705 17.3535 7.03705 17.7292C7.03705 18.1168 7.31338 18.5669 7.66001 18.7438C7.96243 18.8981 8.10625 18.901 15.24 18.901C22.3738 18.901 22.5176 18.8981 22.8201 18.7438C23.1667 18.5669 23.443 18.1168 23.443 17.7292C23.443 17.3415 23.1667 16.8915 22.8201 16.7146C22.5174 16.5602 22.3773 16.5574 15.2236 16.5608C8.12164 16.5641 7.92798 16.5682 7.64337 16.7184ZM7.64337 21.4058C7.31353 21.58 7.03705 22.0409 7.03705 22.4166C7.03705 22.8042 7.31338 23.2543 7.66001 23.4312C7.96243 23.5855 8.10625 23.5884 15.24 23.5884C22.3738 23.5884 22.5176 23.5855 22.8201 23.4312C23.1667 23.2543 23.443 22.8042 23.443 22.4166C23.443 22.0289 23.1667 21.5789 22.8201 21.402C22.5174 21.2476 22.3773 21.2448 15.2236 21.2482C8.12164 21.2515 7.92798 21.2556 7.64337 21.4058ZM7.64337 26.0932C7.31353 26.2674 7.03705 26.7283 7.03705 27.104C7.03705 27.4917 7.31338 27.9417 7.66001 28.1186C7.96243 28.2729 8.10625 28.2759 15.24 28.2759C22.3738 28.2759 22.5176 28.2729 22.8201 28.1186C23.1667 27.9417 23.443 27.4917 23.443 27.104C23.443 26.7164 23.1667 26.2663 22.8201 26.0894C22.5174 25.935 22.3773 25.9322 15.2236 25.9356C8.12164 25.939 7.92798 25.943 7.64337 26.0932ZM7.64337 30.7807C7.31353 30.9548 7.03705 31.4157 7.03705 31.7914C7.03705 32.1791 7.31338 32.6291 7.66001 32.806C7.95938 32.9587 8.11149 32.9633 12.8963 32.9633C17.6812 32.9633 17.8333 32.9587 18.1326 32.806C18.4793 32.6291 18.7556 32.1791 18.7556 31.7914C18.7556 31.4038 18.4793 30.9537 18.1326 30.7768C17.833 30.624 17.6848 30.6196 12.8799 30.623C8.11149 30.6264 7.92509 30.632 7.64337 30.7807Z" fill="white"/>
</svg>
