<svg width="40" height="40" viewBox="0 0 40 40" fill="none" xmlns="http://www.w3.org/2000/svg">
<path fill-rule="evenodd" clip-rule="evenodd" d="M18.1451 0.0460239C13.4593 0.501687 9.17319 2.52086 5.84596 5.84011C2.73709 8.94154 0.840397 12.7422 0.145398 17.263C-0.048466 18.5238 -0.048466 21.4807 0.145398 22.7416C0.839927 27.2594 2.72081 31.0318 5.83555 34.154C8.93698 37.2629 12.7376 39.1596 17.2584 39.8546C18.5193 40.0485 21.4762 40.0485 22.737 39.8546C27.2548 39.1601 31.0272 37.2792 34.1495 34.1645C37.2583 31.063 39.155 27.2624 39.85 22.7416C40.0439 21.4807 40.0439 18.5238 39.85 17.263C39.1555 12.7452 37.2746 8.97277 34.1599 5.85052C31.0795 2.7627 27.2338 0.835098 22.8153 0.164205C21.8374 0.0157351 19.155 -0.0521212 18.1451 0.0460239ZM22.5414 3.28967C26.1542 3.85412 29.3394 5.47461 31.9324 8.06763C34.5457 10.6809 36.1467 13.8444 36.7245 17.5369C36.8196 18.1445 36.8593 18.8699 36.8593 20.0023C36.8593 21.1346 36.8196 21.8601 36.7245 22.4677C36.1467 26.1601 34.5457 29.3236 31.9324 31.9369C29.3191 34.5502 26.1556 36.1512 22.4631 36.7291C21.2774 36.9146 18.718 36.9146 17.5324 36.7291C13.8399 36.1512 10.6764 34.5502 8.06307 31.9369C5.44978 29.3236 3.84877 26.1601 3.27094 22.4677C3.08537 21.282 3.08537 18.7226 3.27094 17.5369C3.84877 13.8444 5.44978 10.6809 8.06307 8.06763C10.9456 5.18503 14.3634 3.59255 18.6281 3.14503C19.2648 3.07819 21.7835 3.17133 22.5414 3.28967ZM18.7846 10.1373C15.9627 10.7409 13.9306 13.0842 13.7632 15.928C13.7282 16.5226 13.7442 16.6367 13.9062 16.9454C14.1676 17.4435 14.5799 17.7464 15.0595 17.7924C15.6317 17.8474 15.9419 17.7635 16.3004 17.4567C16.672 17.1385 16.8173 16.7811 16.9278 15.9127C17.0678 14.8133 17.6861 13.9473 18.6672 13.4765C19.1372 13.2509 19.2385 13.2323 19.9977 13.2323C20.757 13.2323 20.8582 13.2509 21.3282 13.4765C22.5803 14.0774 23.2879 15.4222 23.0638 16.7748C22.8309 18.1801 21.7434 19.2032 20.2914 19.3827C19.4417 19.4877 19.3472 19.5177 19.0233 19.7846C18.4594 20.2495 18.4361 20.3744 18.4341 22.9402C18.4325 25.1445 18.4377 25.2233 18.6085 25.5576C18.7054 25.7471 18.9199 26.01 19.0854 26.1416C19.3629 26.3625 19.4333 26.3809 19.9977 26.3809C20.5621 26.3809 20.6325 26.3625 20.9101 26.1416C21.0755 26.01 21.29 25.7471 21.3869 25.5576C21.5504 25.2376 21.563 25.1112 21.563 23.795V22.3772L22.2087 22.1307C23.7436 21.545 24.9755 20.392 25.6668 18.894C26.1038 17.9473 26.2119 17.4298 26.2119 16.2847C26.2119 15.1433 26.1036 14.6216 25.6728 13.6882C24.9227 12.063 23.627 10.9055 21.9152 10.3315C21.3793 10.1518 21.1313 10.118 20.1934 10.096C19.5907 10.0819 18.9568 10.1004 18.7846 10.1373ZM19.2481 27.7833C18.8901 27.9392 18.4455 28.3589 18.254 28.7215C18.0176 29.1695 18.0176 30.0102 18.254 30.4582C18.4504 30.8302 18.8967 31.2456 19.2655 31.3997C19.5968 31.5382 20.3986 31.5382 20.7299 31.3997C21.0988 31.2456 21.545 30.8302 21.7414 30.4582C21.8682 30.2181 21.9106 30.0003 21.9106 29.5898C21.9106 29.1793 21.8682 28.9616 21.7414 28.7215C21.545 28.3495 21.0988 27.934 20.7299 27.7799C20.4042 27.6438 19.564 27.6458 19.2481 27.7833Z" fill="white"/>
</svg>
