<svg width="53" height="40" viewBox="0 0 53 40" fill="none" xmlns="http://www.w3.org/2000/svg">
<path fill-rule="evenodd" clip-rule="evenodd" d="M31.6897 1.41545C22.3867 5.13642 18.4464 6.47258 13.9429 7.43372C10.9485 8.07278 9.23023 8.27605 4.84042 8.51052C2.71084 8.62422 0.975093 10.8175 0.204289 14.3686C-0.0836619 15.6947 -0.0637696 18.6967 0.242226 20.1076C0.833998 22.8363 2.072 24.7574 3.72688 25.5151C4.27637 25.7666 4.53149 25.8059 6.00266 25.8663C6.91401 25.9037 7.68416 25.9587 7.71406 25.9887C7.74395 26.0186 8.21093 28.8532 8.75172 32.2877C9.29262 35.7224 9.78472 38.6843 9.84537 38.8698C9.98212 39.2879 10.319 39.6123 10.8442 39.8317C11.1811 39.9725 11.8561 40 14.9775 40C18.6302 40 18.7184 39.9949 19.1932 39.7554C19.5632 39.5688 19.7408 39.3844 19.9425 38.9776L20.2067 38.4443L19.4135 33.3629C18.9773 30.5682 18.6383 28.2296 18.6601 28.166C18.7484 27.9096 24.2299 29.884 31.3093 32.722C33.3355 33.5342 35.1107 34.1821 35.3888 34.2109C35.6938 34.2425 36.0323 34.1986 36.2788 34.0956C37.2176 33.7033 38.7411 30.8154 39.6165 27.7686C41.967 19.5881 41.2719 8.64966 38.007 2.43746C37.0731 0.660623 36.3986 -0.00615326 35.5415 4.2742e-05C35.366 0.00134716 33.6328 0.63823 31.6897 1.41545ZM35.4221 5.07957C36.3348 7.24882 36.9233 9.67406 37.3015 12.8246C37.5607 14.9849 37.5615 19.3491 37.303 21.5207C36.9178 24.7569 36.1221 27.8871 35.2388 29.6413L34.8484 30.4164L31.5027 29.0772C22.2644 25.3796 17.423 23.852 12.2565 23.0048L10.7647 22.7601L10.6164 21.6241C10.4153 20.0839 10.4161 14.1501 10.6176 12.6619L10.7647 11.5754L12.4495 11.2824C17.9468 10.3268 23.0498 8.67781 33.0485 4.62563C34.0051 4.23789 34.8198 3.91852 34.8591 3.91591C34.8983 3.9132 35.1517 4.43692 35.4221 5.07957ZM48.7016 4.64356C47.4047 4.92054 43.0953 6.15343 42.8745 6.31072C42.289 6.72759 42.0489 7.80374 42.393 8.469C42.6285 8.92446 43.1489 9.31633 43.625 9.39676C44.0324 9.46557 45.2114 9.19099 48.8103 8.18931C49.8648 7.89581 50.3018 7.59558 50.5629 6.98532C50.7705 6.50008 50.7503 6.12288 50.4874 5.57992C50.1671 4.91825 49.3707 4.50062 48.7016 4.64356ZM7.18424 12.2539C6.83694 14.3778 6.83531 20.0029 7.18153 22.037L7.24175 22.3903H6.17006C5.14152 22.3903 5.08728 22.3784 4.81813 22.0914C4.42137 21.6685 3.99439 20.7687 3.7297 19.7982C3.39479 18.5702 3.39719 15.7442 3.73427 14.5192C3.9932 13.5781 4.37702 12.7042 4.71748 12.2811C4.90934 12.0426 5.04663 12.0016 5.83939 11.9461C6.33615 11.9115 6.85705 11.8747 6.99684 11.8646C7.23196 11.8477 7.24599 11.8768 7.18424 12.2539ZM44.2981 15.678C43.6863 16.0943 43.4839 16.4612 43.4839 17.1534C43.4839 17.9107 43.7925 18.4054 44.4514 18.7048C44.8496 18.8856 45.2038 18.9073 47.7817 18.9095C50.5596 18.9118 50.6845 18.9028 51.1515 18.6673C51.7849 18.3479 52.1626 17.6648 52.0903 16.97C52.034 16.4301 51.7774 16.032 51.2572 15.678C50.9051 15.4384 50.8344 15.4334 47.7776 15.4334C44.7208 15.4334 44.6502 15.4384 44.2981 15.678ZM43.1053 25.0917C42.0796 25.6418 41.8927 26.903 42.7055 27.7899C43.0336 28.1479 43.2059 28.2098 45.8771 28.9288C48.8982 29.742 49.3678 29.7942 49.9369 29.3799C50.2801 29.1302 50.7126 28.3241 50.7126 27.9341C50.7126 27.5013 50.26 26.71 49.8919 26.499C49.4598 26.2514 44.3596 24.8908 43.8626 24.8906C43.6525 24.8906 43.3116 24.981 43.1053 25.0917ZM13.3007 26.7299C14.1575 26.9036 14.8711 27.0621 14.8866 27.0823C14.9021 27.1024 15.2207 29.0999 15.5947 31.5213C15.9687 33.9426 16.3005 36.0583 16.3323 36.2226L16.39 36.5215H14.6881C13.4247 36.5215 12.9738 36.4865 12.9382 36.3857C12.9116 36.311 12.5719 34.1953 12.1831 31.6843C11.7944 29.1733 11.4485 26.9599 11.4145 26.7656C11.3371 26.3234 11.2984 26.324 13.3007 26.7299Z" fill="white"/>
</svg>
