<svg width="40" height="40" viewBox="0 0 40 40" fill="none" xmlns="http://www.w3.org/2000/svg">
<path fill-rule="evenodd" clip-rule="evenodd" d="M18.1575 0.0526429C14.2455 0.456048 10.7634 1.84766 7.63222 4.25893C6.10773 5.43292 4.12796 7.63924 2.98387 9.43903C2.48976 10.2163 1.52793 12.186 1.18337 13.126C0.798124 14.1771 0.387519 15.7834 0.185465 17.0298C-0.0618215 18.5553 -0.0618215 21.4517 0.185465 22.9772C0.535108 25.1337 1.08822 26.8771 2.03495 28.8072C3.06932 30.9158 4.14486 32.4104 5.86718 34.1328C7.58957 35.8551 9.08424 36.9307 11.1928 37.9651C13.1229 38.9118 14.8663 39.4649 17.0228 39.8145C18.5483 40.0618 21.4447 40.0618 22.9702 39.8145C25.1268 39.4649 26.8701 38.9118 28.8002 37.9651C30.9088 36.9307 32.4035 35.8551 34.1259 34.1328C35.8482 32.4104 36.9237 30.9158 37.9581 28.8072C38.6451 27.4066 38.9907 26.4886 39.3608 25.0811C39.8538 23.2065 39.9788 22.179 39.9788 20.0035C39.9788 17.828 39.8538 16.8004 39.3608 14.9259C38.9907 13.5183 38.6451 12.6004 37.9581 11.1998C36.9237 9.09119 35.8482 7.59651 34.1259 5.87412C32.4035 4.1518 30.9088 3.07626 28.8002 2.04189C26.8513 1.08585 25.0308 0.511687 22.9553 0.198354C21.7498 0.0164108 19.2465 -0.0596531 18.1575 0.0526429ZM21.7573 2.63044C25.8641 3.0772 29.4123 4.77229 32.3234 7.67829C33.8085 9.16076 34.7868 10.5259 35.6882 12.3736C36.8744 14.8054 37.4462 17.2865 37.4462 20.0035C37.4462 24.6936 35.6587 28.994 32.323 32.3299C30.8342 33.8186 29.4717 34.7949 27.6264 35.6951C23.9218 37.5023 19.7906 37.9357 15.7646 36.9396C12.696 36.1804 9.96571 34.6255 7.6701 32.3299C6.18137 30.8412 5.20506 29.4786 4.30489 27.6333C3.11862 25.2016 2.54689 22.7204 2.54689 20.0035C2.54689 15.3111 4.33205 11.0176 7.67135 7.67829C10.5349 4.8147 14.1223 3.08401 18.1184 2.63835C18.9566 2.54483 20.931 2.54061 21.7573 2.63044ZM15.764 9.98337C15.4147 10.0892 15.1412 10.313 14.9837 10.6217C14.8387 10.9058 14.8317 11.1159 14.8317 15.1485V19.3774H13.8901C12.8036 19.3774 12.5308 19.4588 12.2108 19.8783C11.7687 20.4578 11.9165 21.3056 12.5321 21.7225C12.7906 21.8976 12.9112 21.9185 13.8245 21.9469L14.8317 21.9783V22.8299V23.6815H13.9049C12.7755 23.6815 12.4118 23.824 12.1165 24.3826C11.7678 25.0421 11.987 25.7593 12.6379 26.0878C12.9408 26.2407 13.1081 26.2639 13.9092 26.2639H14.8317V27.6756C14.8317 28.9254 14.8494 29.1219 14.9858 29.3893C15.3227 30.0496 16.2436 30.2748 16.8175 29.8372C17.3292 29.4468 17.3719 29.2899 17.4007 27.692L17.4266 26.2639H21.0345C24.5237 26.2639 24.6534 26.2586 24.9772 26.1018C25.4912 25.853 25.7785 25.2887 25.6742 24.7327C25.6051 24.3644 25.1436 23.8622 24.782 23.7617C24.6083 23.7135 23.1076 23.6822 20.9552 23.6819L17.4141 23.6815V22.8311V21.9807L20.1335 21.9373C22.4299 21.9007 22.9624 21.8701 23.5571 21.7406C25.7161 21.2707 27.3067 20.1279 28.0944 18.4809C28.5394 17.5506 28.643 17.0888 28.6394 16.0516C28.6281 12.8573 26.1066 10.3671 22.5007 9.98916C21.6316 9.89807 16.0612 9.8933 15.764 9.98337ZM23.1609 12.6809C24.7828 13.1543 25.922 14.3694 26.0662 15.7797C26.2003 17.0908 25.4123 18.3479 24.1056 18.9077C23.2436 19.277 22.9133 19.3139 20.0943 19.3556L17.4141 19.3953V15.9368V12.4783L20.0552 12.5118C22.2597 12.5397 22.7731 12.5677 23.1609 12.6809Z" fill="white"/>
</svg>
