<svg width="41" height="40" viewBox="0 0 41 40" fill="none" xmlns="http://www.w3.org/2000/svg">
<path fill-rule="evenodd" clip-rule="evenodd" d="M19.0595 0.0192011C18.9305 0.0376508 18.5486 0.0901855 18.2107 0.135919C16.2846 0.396716 13.9811 1.48071 12.4145 2.86358C10.4357 4.61028 9.03965 7.12546 8.61429 9.71006C8.46098 10.6416 8.48092 12.7569 8.65111 13.6126C9.21242 16.4339 10.8039 19.0454 12.9537 20.6729L13.4888 21.0779L13.2643 21.1632C12.3237 21.5204 11.9105 21.7004 11.1116 22.1006C7.63833 23.8404 4.81224 26.4722 2.80521 29.8362C1.16116 32.5916 0.245162 35.6622 0.0530038 39.0618L0 40H1.57526H3.15052V39.6174C3.15052 36.9685 4.25344 33.306 5.72879 31.0561C8.00764 27.5806 11.0545 25.1964 14.7705 23.9811C18.3005 22.8265 21.7728 22.8265 25.3029 23.9811C29.0189 25.1964 32.0657 27.5806 34.3446 31.0561C35.8199 33.306 36.9228 36.9685 36.9228 39.6174V40H38.4981H40.0734L40.0204 39.0618C39.8282 35.6622 38.9122 32.5916 37.2681 29.8362C35.2611 26.4722 32.435 23.8404 28.9617 22.1006C28.1628 21.7004 27.7497 21.5204 26.809 21.1632L26.5846 21.0779L27.1196 20.6729C29.2695 19.0454 30.8609 16.4339 31.4222 13.6126C31.5924 12.7569 31.6124 10.6416 31.4591 9.71006C31.1195 7.64713 30.085 5.46905 28.7028 3.90771C26.9949 1.97839 24.584 0.615533 22.0752 0.161248C21.4717 0.0519572 19.4846 -0.0416203 19.0595 0.0192011ZM21.3591 3.22061C25.9581 3.9665 29.1008 8.29655 28.3598 12.8661C27.6139 17.4651 23.2838 20.6078 18.7142 19.8668C14.1153 19.1209 10.9726 14.7908 11.7136 10.2213C12.4593 5.62298 16.7902 2.47966 21.3591 3.22061Z" fill="white"/>
</svg>
